<svg width="140" height="140" viewBox="0 0 140 140" fill="none" xmlns="http://www.w3.org/2000/svg">
<path d="M4.82746 6.10352e-05H-0.00012207V4.82765H4.82746V6.10352e-05Z" fill="black" fill-opacity="0.88"/>
<path d="M9.65505 6.10352e-05H4.82746V4.82765H9.65505V6.10352e-05Z" fill="black" fill-opacity="0.88"/>
<path d="M14.4826 6.10352e-05H9.65505V4.82765H14.4826V6.10352e-05Z" fill="black" fill-opacity="0.88"/>
<path d="M19.3102 6.10352e-05H14.4826V4.82765H19.3102V6.10352e-05Z" fill="black" fill-opacity="0.88"/>
<path d="M24.1378 6.10352e-05H19.3102V4.82765H24.1378V6.10352e-05Z" fill="black" fill-opacity="0.88"/>
<path d="M28.9654 6.10352e-05H24.1378V4.82765H28.9654V6.10352e-05Z" fill="black" fill-opacity="0.88"/>
<path d="M33.793 6.10352e-05H28.9654V4.82765H33.793V6.10352e-05Z" fill="black" fill-opacity="0.88"/>
<path d="M43.4482 6.10352e-05H38.6206V4.82765H43.4482V6.10352e-05Z" fill="black" fill-opacity="0.88"/>
<path d="M53.1033 6.10352e-05H48.2757V4.82765H53.1033V6.10352e-05Z" fill="black" fill-opacity="0.88"/>
<path d="M62.7585 6.10352e-05H57.9309V4.82765H62.7585V6.10352e-05Z" fill="black" fill-opacity="0.88"/>
<path d="M77.2413 6.10352e-05H72.4137V4.82765H77.2413V6.10352e-05Z" fill="black" fill-opacity="0.88"/>
<path d="M82.0688 6.10352e-05H77.2413V4.82765H82.0688V6.10352e-05Z" fill="black" fill-opacity="0.88"/>
<path d="M86.8964 6.10352e-05H82.0688V4.82765H86.8964V6.10352e-05Z" fill="black" fill-opacity="0.88"/>
<path d="M91.724 6.10352e-05H86.8964V4.82765H91.724V6.10352e-05Z" fill="black" fill-opacity="0.88"/>
<path d="M96.5516 6.10352e-05H91.724V4.82765H96.5516V6.10352e-05Z" fill="black" fill-opacity="0.88"/>
<path d="M101.379 6.10352e-05H96.5516V4.82765H101.379V6.10352e-05Z" fill="black" fill-opacity="0.88"/>
<path d="M111.034 6.10352e-05H106.207V4.82765H111.034V6.10352e-05Z" fill="black" fill-opacity="0.88"/>
<path d="M115.862 6.10352e-05H111.034V4.82765H115.862V6.10352e-05Z" fill="black" fill-opacity="0.88"/>
<path d="M120.69 6.10352e-05H115.862V4.82765H120.69V6.10352e-05Z" fill="black" fill-opacity="0.88"/>
<path d="M125.517 6.10352e-05H120.69V4.82765H125.517V6.10352e-05Z" fill="black" fill-opacity="0.88"/>
<path d="M130.345 6.10352e-05H125.517V4.82765H130.345V6.10352e-05Z" fill="black" fill-opacity="0.88"/>
<path d="M135.172 6.10352e-05H130.345V4.82765H135.172V6.10352e-05Z" fill="black" fill-opacity="0.88"/>
<path d="M140 6.10352e-05H135.172V4.82765H140V6.10352e-05Z" fill="black" fill-opacity="0.88"/>
<path d="M4.82746 4.82765H-0.00012207V9.65523H4.82746V4.82765Z" fill="black" fill-opacity="0.88"/>
<path d="M33.793 4.82765H28.9654V9.65523H33.793V4.82765Z" fill="black" fill-opacity="0.88"/>
<path d="M48.2757 4.82765H43.4482V9.65523H48.2757V4.82765Z" fill="black" fill-opacity="0.88"/>
<path d="M57.9309 4.82765H53.1033V9.65523H57.9309V4.82765Z" fill="black" fill-opacity="0.88"/>
<path d="M62.7585 4.82765H57.9309V9.65523H62.7585V4.82765Z" fill="black" fill-opacity="0.88"/>
<path d="M72.4137 4.82765H67.5861V9.65523H72.4137V4.82765Z" fill="black" fill-opacity="0.88"/>
<path d="M86.8964 4.82765H82.0688V9.65523H86.8964V4.82765Z" fill="black" fill-opacity="0.88"/>
<path d="M91.724 4.82765H86.8964V9.65523H91.724V4.82765Z" fill="black" fill-opacity="0.88"/>
<path d="M96.5516 4.82765H91.724V9.65523H96.5516V4.82765Z" fill="black" fill-opacity="0.88"/>
<path d="M101.379 4.82765H96.5516V9.65523H101.379V4.82765Z" fill="black" fill-opacity="0.88"/>
<path d="M111.034 4.82765H106.207V9.65523H111.034V4.82765Z" fill="black" fill-opacity="0.88"/>
<path d="M140 4.82765H135.172V9.65523H140V4.82765Z" fill="black" fill-opacity="0.88"/>
<path d="M4.82746 9.65523H-0.00012207V14.4828H4.82746V9.65523Z" fill="black" fill-opacity="0.88"/>
<path d="M14.4826 9.65523H9.65505V14.4828H14.4826V9.65523Z" fill="black" fill-opacity="0.88"/>
<path d="M19.3102 9.65523H14.4826V14.4828H19.3102V9.65523Z" fill="black" fill-opacity="0.88"/>
<path d="M24.1378 9.65523H19.3102V14.4828H24.1378V9.65523Z" fill="black" fill-opacity="0.88"/>
<path d="M33.793 9.65523H28.9654V14.4828H33.793V9.65523Z" fill="black" fill-opacity="0.88"/>
<path d="M48.2757 9.65523H43.4482V14.4828H48.2757V9.65523Z" fill="black" fill-opacity="0.88"/>
<path d="M62.7585 9.65523H57.9309V14.4828H62.7585V9.65523Z" fill="black" fill-opacity="0.88"/>
<path d="M67.5861 9.65523H62.7585V14.4828H67.5861V9.65523Z" fill="black" fill-opacity="0.88"/>
<path d="M77.2413 9.65523H72.4137V14.4828H77.2413V9.65523Z" fill="black" fill-opacity="0.88"/>
<path d="M82.0688 9.65523H77.2413V14.4828H82.0688V9.65523Z" fill="black" fill-opacity="0.88"/>
<path d="M91.724 9.65523H86.8964V14.4828H91.724V9.65523Z" fill="black" fill-opacity="0.88"/>
<path d="M101.379 9.65523H96.5516V14.4828H101.379V9.65523Z" fill="black" fill-opacity="0.88"/>
<path d="M111.034 9.65523H106.207V14.4828H111.034V9.65523Z" fill="black" fill-opacity="0.88"/>
<path d="M120.69 9.65523H115.862V14.4828H120.69V9.65523Z" fill="black" fill-opacity="0.88"/>
<path d="M125.517 9.65523H120.69V14.4828H125.517V9.65523Z" fill="black" fill-opacity="0.88"/>
<path d="M130.345 9.65523H125.517V14.4828H130.345V9.65523Z" fill="black" fill-opacity="0.88"/>
<path d="M140 9.65523H135.172V14.4828H140V9.65523Z" fill="black" fill-opacity="0.88"/>
<path d="M4.82746 14.4828H-0.00012207V19.3104H4.82746V14.4828Z" fill="black" fill-opacity="0.88"/>
<path d="M14.4826 14.4828H9.65505V19.3104H14.4826V14.4828Z" fill="black" fill-opacity="0.88"/>
<path d="M19.3102 14.4828H14.4826V19.3104H19.3102V14.4828Z" fill="black" fill-opacity="0.88"/>
<path d="M24.1378 14.4828H19.3102V19.3104H24.1378V14.4828Z" fill="black" fill-opacity="0.88"/>
<path d="M33.793 14.4828H28.9654V19.3104H33.793V14.4828Z" fill="black" fill-opacity="0.88"/>
<path d="M43.4482 14.4828H38.6206V19.3104H43.4482V14.4828Z" fill="black" fill-opacity="0.88"/>
<path d="M48.2757 14.4828H43.4482V19.3104H48.2757V14.4828Z" fill="black" fill-opacity="0.88"/>
<path d="M57.9309 14.4828H53.1033V19.3104H57.9309V14.4828Z" fill="black" fill-opacity="0.88"/>
<path d="M62.7585 14.4828H57.9309V19.3104H62.7585V14.4828Z" fill="black" fill-opacity="0.88"/>
<path d="M67.5861 14.4828H62.7585V19.3104H67.5861V14.4828Z" fill="black" fill-opacity="0.88"/>
<path d="M82.0688 14.4828H77.2413V19.3104H82.0688V14.4828Z" fill="black" fill-opacity="0.88"/>
<path d="M86.8964 14.4828H82.0688V19.3104H86.8964V14.4828Z" fill="black" fill-opacity="0.88"/>
<path d="M91.724 14.4828H86.8964V19.3104H91.724V14.4828Z" fill="black" fill-opacity="0.88"/>
<path d="M96.5516 14.4828H91.724V19.3104H96.5516V14.4828Z" fill="black" fill-opacity="0.88"/>
<path d="M111.034 14.4828H106.207V19.3104H111.034V14.4828Z" fill="black" fill-opacity="0.88"/>
<path d="M120.69 14.4828H115.862V19.3104H120.69V14.4828Z" fill="black" fill-opacity="0.88"/>
<path d="M125.517 14.4828H120.69V19.3104H125.517V14.4828Z" fill="black" fill-opacity="0.88"/>
<path d="M130.345 14.4828H125.517V19.3104H130.345V14.4828Z" fill="black" fill-opacity="0.88"/>
<path d="M140 14.4828H135.172V19.3104H140V14.4828Z" fill="black" fill-opacity="0.88"/>
<path d="M4.82746 19.3104H-0.00012207V24.138H4.82746V19.3104Z" fill="black" fill-opacity="0.88"/>
<path d="M14.4826 19.3104H9.65505V24.138H14.4826V19.3104Z" fill="black" fill-opacity="0.88"/>
<path d="M19.3102 19.3104H14.4826V24.138H19.3102V19.3104Z" fill="black" fill-opacity="0.88"/>
<path d="M24.1378 19.3104H19.3102V24.138H24.1378V19.3104Z" fill="black" fill-opacity="0.88"/>
<path d="M33.793 19.3104H28.9654V24.138H33.793V19.3104Z" fill="black" fill-opacity="0.88"/>
<path d="M43.4482 19.3104H38.6206V24.138H43.4482V19.3104Z" fill="black" fill-opacity="0.88"/>
<path d="M48.2757 19.3104H43.4482V24.138H48.2757V19.3104Z" fill="black" fill-opacity="0.88"/>
<path d="M53.1033 19.3104H48.2757V24.138H53.1033V19.3104Z" fill="black" fill-opacity="0.88"/>
<path d="M62.7585 19.3104H57.9309V24.138H62.7585V19.3104Z" fill="black" fill-opacity="0.88"/>
<path d="M77.2413 19.3104H72.4137V24.138H77.2413V19.3104Z" fill="black" fill-opacity="0.88"/>
<path d="M86.8964 19.3104H82.0688V24.138H86.8964V19.3104Z" fill="black" fill-opacity="0.88"/>
<path d="M91.724 19.3104H86.8964V24.138H91.724V19.3104Z" fill="black" fill-opacity="0.88"/>
<path d="M101.379 19.3104H96.5516V24.138H101.379V19.3104Z" fill="black" fill-opacity="0.88"/>
<path d="M111.034 19.3104H106.207V24.138H111.034V19.3104Z" fill="black" fill-opacity="0.88"/>
<path d="M120.69 19.3104H115.862V24.138H120.69V19.3104Z" fill="black" fill-opacity="0.88"/>
<path d="M125.517 19.3104H120.69V24.138H125.517V19.3104Z" fill="black" fill-opacity="0.88"/>
<path d="M130.345 19.3104H125.517V24.138H130.345V19.3104Z" fill="black" fill-opacity="0.88"/>
<path d="M140 19.3104H135.172V24.138H140V19.3104Z" fill="black" fill-opacity="0.88"/>
<path d="M4.82746 24.138H-0.00012207V28.9656H4.82746V24.138Z" fill="black" fill-opacity="0.88"/>
<path d="M33.793 24.138H28.9654V28.9656H33.793V24.138Z" fill="black" fill-opacity="0.88"/>
<path d="M43.4482 24.138H38.6206V28.9656H43.4482V24.138Z" fill="black" fill-opacity="0.88"/>
<path d="M53.1033 24.138H48.2757V28.9656H53.1033V24.138Z" fill="black" fill-opacity="0.88"/>
<path d="M57.9309 24.138H53.1033V28.9656H57.9309V24.138Z" fill="black" fill-opacity="0.88"/>
<path d="M77.2413 24.138H72.4137V28.9656H77.2413V24.138Z" fill="black" fill-opacity="0.88"/>
<path d="M82.0688 24.138H77.2413V28.9656H82.0688V24.138Z" fill="black" fill-opacity="0.88"/>
<path d="M96.5516 24.138H91.724V28.9656H96.5516V24.138Z" fill="black" fill-opacity="0.88"/>
<path d="M111.034 24.138H106.207V28.9656H111.034V24.138Z" fill="black" fill-opacity="0.88"/>
<path d="M140 24.138H135.172V28.9656H140V24.138Z" fill="black" fill-opacity="0.88"/>
<path d="M4.82746 28.9656H-0.00012207V33.7932H4.82746V28.9656Z" fill="black" fill-opacity="0.88"/>
<path d="M9.65505 28.9656H4.82746V33.7932H9.65505V28.9656Z" fill="black" fill-opacity="0.88"/>
<path d="M14.4826 28.9656H9.65505V33.7932H14.4826V28.9656Z" fill="black" fill-opacity="0.88"/>
<path d="M19.3102 28.9656H14.4826V33.7932H19.3102V28.9656Z" fill="black" fill-opacity="0.88"/>
<path d="M24.1378 28.9656H19.3102V33.7932H24.1378V28.9656Z" fill="black" fill-opacity="0.88"/>
<path d="M28.9654 28.9656H24.1378V33.7932H28.9654V28.9656Z" fill="black" fill-opacity="0.88"/>
<path d="M33.793 28.9656H28.9654V33.7932H33.793V28.9656Z" fill="black" fill-opacity="0.88"/>
<path d="M43.4482 28.9656H38.6206V33.7932H43.4482V28.9656Z" fill="black" fill-opacity="0.88"/>
<path d="M53.1033 28.9656H48.2757V33.7932H53.1033V28.9656Z" fill="black" fill-opacity="0.88"/>
<path d="M62.7585 28.9656H57.9309V33.7932H62.7585V28.9656Z" fill="black" fill-opacity="0.88"/>
<path d="M72.4137 28.9656H67.5861V33.7932H72.4137V28.9656Z" fill="black" fill-opacity="0.88"/>
<path d="M82.0688 28.9656H77.2413V33.7932H82.0688V28.9656Z" fill="black" fill-opacity="0.88"/>
<path d="M91.724 28.9656H86.8964V33.7932H91.724V28.9656Z" fill="black" fill-opacity="0.88"/>
<path d="M101.379 28.9656H96.5516V33.7932H101.379V28.9656Z" fill="black" fill-opacity="0.88"/>
<path d="M111.034 28.9656H106.207V33.7932H111.034V28.9656Z" fill="black" fill-opacity="0.88"/>
<path d="M115.862 28.9656H111.034V33.7932H115.862V28.9656Z" fill="black" fill-opacity="0.88"/>
<path d="M120.69 28.9656H115.862V33.7932H120.69V28.9656Z" fill="black" fill-opacity="0.88"/>
<path d="M125.517 28.9656H120.69V33.7932H125.517V28.9656Z" fill="black" fill-opacity="0.88"/>
<path d="M130.345 28.9656H125.517V33.7932H130.345V28.9656Z" fill="black" fill-opacity="0.88"/>
<path d="M135.172 28.9656H130.345V33.7932H135.172V28.9656Z" fill="black" fill-opacity="0.88"/>
<path d="M140 28.9656H135.172V33.7932H140V28.9656Z" fill="black" fill-opacity="0.88"/>
<path d="M43.4482 33.7932H38.6206V38.6208H43.4482V33.7932Z" fill="black" fill-opacity="0.88"/>
<path d="M48.2757 33.7932H43.4482V38.6208H48.2757V33.7932Z" fill="black" fill-opacity="0.88"/>
<path d="M67.5861 33.7932H62.7585V38.6208H67.5861V33.7932Z" fill="black" fill-opacity="0.88"/>
<path d="M96.5516 33.7932H91.724V38.6208H96.5516V33.7932Z" fill="black" fill-opacity="0.88"/>
<path d="M4.82746 38.6208H-0.00012207V43.4483H4.82746V38.6208Z" fill="black" fill-opacity="0.88"/>
<path d="M9.65505 38.6208H4.82746V43.4483H9.65505V38.6208Z" fill="black" fill-opacity="0.88"/>
<path d="M14.4826 38.6208H9.65505V43.4483H14.4826V38.6208Z" fill="black" fill-opacity="0.88"/>
<path d="M24.1378 38.6208H19.3102V43.4483H24.1378V38.6208Z" fill="black" fill-opacity="0.88"/>
<path d="M33.793 38.6208H28.9654V43.4483H33.793V38.6208Z" fill="black" fill-opacity="0.88"/>
<path d="M43.4482 38.6208H38.6206V43.4483H43.4482V38.6208Z" fill="black" fill-opacity="0.88"/>
<path d="M62.7585 38.6208H57.9309V43.4483H62.7585V38.6208Z" fill="black" fill-opacity="0.88"/>
<path d="M91.724 38.6208H86.8964V43.4483H91.724V38.6208Z" fill="black" fill-opacity="0.88"/>
<path d="M106.207 38.6208H101.379V43.4483H106.207V38.6208Z" fill="black" fill-opacity="0.88"/>
<path d="M111.034 38.6208H106.207V43.4483H111.034V38.6208Z" fill="black" fill-opacity="0.88"/>
<path d="M115.862 38.6208H111.034V43.4483H115.862V38.6208Z" fill="black" fill-opacity="0.88"/>
<path d="M120.69 38.6208H115.862V43.4483H120.69V38.6208Z" fill="black" fill-opacity="0.88"/>
<path d="M125.517 38.6208H120.69V43.4483H125.517V38.6208Z" fill="black" fill-opacity="0.88"/>
<path d="M140 38.6208H135.172V43.4483H140V38.6208Z" fill="black" fill-opacity="0.88"/>
<path d="M9.65505 43.4483H4.82746V48.2759H9.65505V43.4483Z" fill="black" fill-opacity="0.88"/>
<path d="M19.3102 43.4483H14.4826V48.2759H19.3102V43.4483Z" fill="black" fill-opacity="0.88"/>
<path d="M38.6206 43.4483H33.793V48.2759H38.6206V43.4483Z" fill="black" fill-opacity="0.88"/>
<path d="M43.4482 43.4483H38.6206V48.2759H43.4482V43.4483Z" fill="black" fill-opacity="0.88"/>
<path d="M62.7585 43.4483H57.9309V48.2759H62.7585V43.4483Z" fill="black" fill-opacity="0.88"/>
<path d="M67.5861 43.4483H62.7585V48.2759H67.5861V43.4483Z" fill="black" fill-opacity="0.88"/>
<path d="M82.0688 43.4483H77.2413V48.2759H82.0688V43.4483Z" fill="black" fill-opacity="0.88"/>
<path d="M86.8964 43.4483H82.0688V48.2759H86.8964V43.4483Z" fill="black" fill-opacity="0.88"/>
<path d="M101.379 43.4483H96.5516V48.2759H101.379V43.4483Z" fill="black" fill-opacity="0.88"/>
<path d="M135.172 43.4483H130.345V48.2759H135.172V43.4483Z" fill="black" fill-opacity="0.88"/>
<path d="M140 43.4483H135.172V48.2759H140V43.4483Z" fill="black" fill-opacity="0.88"/>
<path d="M24.1378 48.2759H19.3102V53.1035H24.1378V48.2759Z" fill="black" fill-opacity="0.88"/>
<path d="M28.9654 48.2759H24.1378V53.1035H28.9654V48.2759Z" fill="black" fill-opacity="0.88"/>
<path d="M33.793 48.2759H28.9654V53.1035H33.793V48.2759Z" fill="black" fill-opacity="0.88"/>
<path d="M38.6206 48.2759H33.793V53.1035H38.6206V48.2759Z" fill="black" fill-opacity="0.88"/>
<path d="M43.4482 48.2759H38.6206V53.1035H43.4482V48.2759Z" fill="black" fill-opacity="0.88"/>
<path d="M57.9309 48.2759H53.1033V53.1035H57.9309V48.2759Z" fill="black" fill-opacity="0.88"/>
<path d="M62.7585 48.2759H57.9309V53.1035H62.7585V48.2759Z" fill="black" fill-opacity="0.88"/>
<path d="M67.5861 48.2759H62.7585V53.1035H67.5861V48.2759Z" fill="black" fill-opacity="0.88"/>
<path d="M72.4137 48.2759H67.5861V53.1035H72.4137V48.2759Z" fill="black" fill-opacity="0.88"/>
<path d="M82.0688 48.2759H77.2413V53.1035H82.0688V48.2759Z" fill="black" fill-opacity="0.88"/>
<path d="M96.5516 48.2759H91.724V53.1035H96.5516V48.2759Z" fill="black" fill-opacity="0.88"/>
<path d="M111.034 48.2759H106.207V53.1035H111.034V48.2759Z" fill="black" fill-opacity="0.88"/>
<path d="M120.69 48.2759H115.862V53.1035H120.69V48.2759Z" fill="black" fill-opacity="0.88"/>
<path d="M130.345 48.2759H125.517V53.1035H130.345V48.2759Z" fill="black" fill-opacity="0.88"/>
<path d="M140 48.2759H135.172V53.1035H140V48.2759Z" fill="black" fill-opacity="0.88"/>
<path d="M4.82746 53.1035H-0.00012207V57.9311H4.82746V53.1035Z" fill="black" fill-opacity="0.88"/>
<path d="M9.65505 53.1035H4.82746V57.9311H9.65505V53.1035Z" fill="black" fill-opacity="0.88"/>
<path d="M14.4826 53.1035H9.65505V57.9311H14.4826V53.1035Z" fill="black" fill-opacity="0.88"/>
<path d="M19.3102 53.1035H14.4826V57.9311H19.3102V53.1035Z" fill="black" fill-opacity="0.88"/>
<path d="M28.9654 53.1035H24.1378V57.9311H28.9654V53.1035Z" fill="black" fill-opacity="0.88"/>
<path d="M53.1033 53.1035H48.2757V57.9311H53.1033V53.1035Z" fill="black" fill-opacity="0.88"/>
<path d="M57.9309 53.1035H53.1033V57.9311H57.9309V53.1035Z" fill="black" fill-opacity="0.88"/>
<path d="M62.7585 53.1035H57.9309V57.9311H62.7585V53.1035Z" fill="black" fill-opacity="0.88"/>
<path d="M67.5861 53.1035H62.7585V57.9311H67.5861V53.1035Z" fill="black" fill-opacity="0.88"/>
<path d="M77.2413 53.1035H72.4137V57.9311H77.2413V53.1035Z" fill="black" fill-opacity="0.88"/>
<path d="M91.724 53.1035H86.8964V57.9311H91.724V53.1035Z" fill="black" fill-opacity="0.88"/>
<path d="M111.034 53.1035H106.207V57.9311H111.034V53.1035Z" fill="black" fill-opacity="0.88"/>
<path d="M115.862 53.1035H111.034V57.9311H115.862V53.1035Z" fill="black" fill-opacity="0.88"/>
<path d="M120.69 53.1035H115.862V57.9311H120.69V53.1035Z" fill="black" fill-opacity="0.88"/>
<path d="M135.172 53.1035H130.345V57.9311H135.172V53.1035Z" fill="black" fill-opacity="0.88"/>
<path d="M14.4826 57.9311H9.65505V62.7587H14.4826V57.9311Z" fill="black" fill-opacity="0.88"/>
<path d="M19.3102 57.9311H14.4826V62.7587H19.3102V57.9311Z" fill="black" fill-opacity="0.88"/>
<path d="M24.1378 57.9311H19.3102V62.7587H24.1378V57.9311Z" fill="black" fill-opacity="0.88"/>
<path d="M28.9654 57.9311H24.1378V62.7587H28.9654V57.9311Z" fill="black" fill-opacity="0.88"/>
<path d="M33.793 57.9311H28.9654V62.7587H33.793V57.9311Z" fill="black" fill-opacity="0.88"/>
<path d="M43.4482 57.9311H38.6206V62.7587H43.4482V57.9311Z" fill="black" fill-opacity="0.88"/>
<path d="M53.1033 57.9311H48.2757V62.7587H53.1033V57.9311Z" fill="black" fill-opacity="0.88"/>
<path d="M57.9309 57.9311H53.1033V62.7587H57.9309V57.9311Z" fill="black" fill-opacity="0.88"/>
<path d="M62.7585 57.9311H57.9309V62.7587H62.7585V57.9311Z" fill="black" fill-opacity="0.88"/>
<path d="M67.5861 57.9311H62.7585V62.7587H67.5861V57.9311Z" fill="black" fill-opacity="0.88"/>
<path d="M72.4137 57.9311H67.5861V62.7587H72.4137V57.9311Z" fill="black" fill-opacity="0.88"/>
<path d="M77.2413 57.9311H72.4137V62.7587H77.2413V57.9311Z" fill="black" fill-opacity="0.88"/>
<path d="M86.8964 57.9311H82.0688V62.7587H86.8964V57.9311Z" fill="black" fill-opacity="0.88"/>
<path d="M96.5516 57.9311H91.724V62.7587H96.5516V57.9311Z" fill="black" fill-opacity="0.88"/>
<path d="M101.379 57.9311H96.5516V62.7587H101.379V57.9311Z" fill="black" fill-opacity="0.88"/>
<path d="M115.862 57.9311H111.034V62.7587H115.862V57.9311Z" fill="black" fill-opacity="0.88"/>
<path d="M120.69 57.9311H115.862V62.7587H120.69V57.9311Z" fill="black" fill-opacity="0.88"/>
<path d="M38.6206 62.7587H33.793V67.5863H38.6206V62.7587Z" fill="black" fill-opacity="0.88"/>
<path d="M43.4482 62.7587H38.6206V67.5863H43.4482V62.7587Z" fill="black" fill-opacity="0.88"/>
<path d="M48.2757 62.7587H43.4482V67.5863H48.2757V62.7587Z" fill="black" fill-opacity="0.88"/>
<path d="M53.1033 62.7587H48.2757V67.5863H53.1033V62.7587Z" fill="black" fill-opacity="0.88"/>
<path d="M57.9309 62.7587H53.1033V67.5863H57.9309V62.7587Z" fill="black" fill-opacity="0.88"/>
<path d="M62.7585 62.7587H57.9309V67.5863H62.7585V62.7587Z" fill="black" fill-opacity="0.88"/>
<path d="M67.5861 62.7587H62.7585V67.5863H67.5861V62.7587Z" fill="black" fill-opacity="0.88"/>
<path d="M72.4137 62.7587H67.5861V67.5863H72.4137V62.7587Z" fill="black" fill-opacity="0.88"/>
<path d="M86.8964 62.7587H82.0688V67.5863H86.8964V62.7587Z" fill="black" fill-opacity="0.88"/>
<path d="M101.379 62.7587H96.5516V67.5863H101.379V62.7587Z" fill="black" fill-opacity="0.88"/>
<path d="M120.69 62.7587H115.862V67.5863H120.69V62.7587Z" fill="black" fill-opacity="0.88"/>
<path d="M130.345 62.7587H125.517V67.5863H130.345V62.7587Z" fill="black" fill-opacity="0.88"/>
<path d="M135.172 62.7587H130.345V67.5863H135.172V62.7587Z" fill="black" fill-opacity="0.88"/>
<path d="M24.1378 67.5863H19.3102V72.4139H24.1378V67.5863Z" fill="black" fill-opacity="0.88"/>
<path d="M33.793 67.5863H28.9654V72.4139H33.793V67.5863Z" fill="black" fill-opacity="0.88"/>
<path d="M67.5861 67.5863H62.7585V72.4139H67.5861V67.5863Z" fill="black" fill-opacity="0.88"/>
<path d="M82.0688 67.5863H77.2413V72.4139H82.0688V67.5863Z" fill="black" fill-opacity="0.88"/>
<path d="M86.8964 67.5863H82.0688V72.4139H86.8964V67.5863Z" fill="black" fill-opacity="0.88"/>
<path d="M96.5516 67.5863H91.724V72.4139H96.5516V67.5863Z" fill="black" fill-opacity="0.88"/>
<path d="M101.379 67.5863H96.5516V72.4139H101.379V67.5863Z" fill="black" fill-opacity="0.88"/>
<path d="M106.207 67.5863H101.379V72.4139H106.207V67.5863Z" fill="black" fill-opacity="0.88"/>
<path d="M111.034 67.5863H106.207V72.4139H111.034V67.5863Z" fill="black" fill-opacity="0.88"/>
<path d="M115.862 67.5863H111.034V72.4139H115.862V67.5863Z" fill="black" fill-opacity="0.88"/>
<path d="M120.69 67.5863H115.862V72.4139H120.69V67.5863Z" fill="black" fill-opacity="0.88"/>
<path d="M130.345 67.5863H125.517V72.4139H130.345V67.5863Z" fill="black" fill-opacity="0.88"/>
<path d="M4.82746 72.4139H-0.00012207V77.2414H4.82746V72.4139Z" fill="black" fill-opacity="0.88"/>
<path d="M14.4826 72.4139H9.65505V77.2414H14.4826V72.4139Z" fill="black" fill-opacity="0.88"/>
<path d="M24.1378 72.4139H19.3102V77.2414H24.1378V72.4139Z" fill="black" fill-opacity="0.88"/>
<path d="M28.9654 72.4139H24.1378V77.2414H28.9654V72.4139Z" fill="black" fill-opacity="0.88"/>
<path d="M38.6206 72.4139H33.793V77.2414H38.6206V72.4139Z" fill="black" fill-opacity="0.88"/>
<path d="M53.1033 72.4139H48.2757V77.2414H53.1033V72.4139Z" fill="black" fill-opacity="0.88"/>
<path d="M62.7585 72.4139H57.9309V77.2414H62.7585V72.4139Z" fill="black" fill-opacity="0.88"/>
<path d="M77.2413 72.4139H72.4137V77.2414H77.2413V72.4139Z" fill="black" fill-opacity="0.88"/>
<path d="M91.724 72.4139H86.8964V77.2414H91.724V72.4139Z" fill="black" fill-opacity="0.88"/>
<path d="M101.379 72.4139H96.5516V77.2414H101.379V72.4139Z" fill="black" fill-opacity="0.88"/>
<path d="M115.862 72.4139H111.034V77.2414H115.862V72.4139Z" fill="black" fill-opacity="0.88"/>
<path d="M130.345 72.4139H125.517V77.2414H130.345V72.4139Z" fill="black" fill-opacity="0.88"/>
<path d="M135.172 72.4139H130.345V77.2414H135.172V72.4139Z" fill="black" fill-opacity="0.88"/>
<path d="M4.82746 77.2414H-0.00012207V82.069H4.82746V77.2414Z" fill="black" fill-opacity="0.88"/>
<path d="M9.65505 77.2414H4.82746V82.069H9.65505V77.2414Z" fill="black" fill-opacity="0.88"/>
<path d="M14.4826 77.2414H9.65505V82.069H14.4826V77.2414Z" fill="black" fill-opacity="0.88"/>
<path d="M19.3102 77.2414H14.4826V82.069H19.3102V77.2414Z" fill="black" fill-opacity="0.88"/>
<path d="M24.1378 77.2414H19.3102V82.069H24.1378V77.2414Z" fill="black" fill-opacity="0.88"/>
<path d="M28.9654 77.2414H24.1378V82.069H28.9654V77.2414Z" fill="black" fill-opacity="0.88"/>
<path d="M33.793 77.2414H28.9654V82.069H33.793V77.2414Z" fill="black" fill-opacity="0.88"/>
<path d="M38.6206 77.2414H33.793V82.069H38.6206V77.2414Z" fill="black" fill-opacity="0.88"/>
<path d="M48.2757 77.2414H43.4482V82.069H48.2757V77.2414Z" fill="black" fill-opacity="0.88"/>
<path d="M53.1033 77.2414H48.2757V82.069H53.1033V77.2414Z" fill="black" fill-opacity="0.88"/>
<path d="M57.9309 77.2414H53.1033V82.069H57.9309V77.2414Z" fill="black" fill-opacity="0.88"/>
<path d="M62.7585 77.2414H57.9309V82.069H62.7585V77.2414Z" fill="black" fill-opacity="0.88"/>
<path d="M67.5861 77.2414H62.7585V82.069H67.5861V77.2414Z" fill="black" fill-opacity="0.88"/>
<path d="M72.4137 77.2414H67.5861V82.069H72.4137V77.2414Z" fill="black" fill-opacity="0.88"/>
<path d="M82.0688 77.2414H77.2413V82.069H82.0688V77.2414Z" fill="black" fill-opacity="0.88"/>
<path d="M86.8964 77.2414H82.0688V82.069H86.8964V77.2414Z" fill="black" fill-opacity="0.88"/>
<path d="M101.379 77.2414H96.5516V82.069H101.379V77.2414Z" fill="black" fill-opacity="0.88"/>
<path d="M120.69 77.2414H115.862V82.069H120.69V77.2414Z" fill="black" fill-opacity="0.88"/>
<path d="M9.65505 82.069H4.82746V86.8966H9.65505V82.069Z" fill="black" fill-opacity="0.88"/>
<path d="M19.3102 82.069H14.4826V86.8966H19.3102V82.069Z" fill="black" fill-opacity="0.88"/>
<path d="M24.1378 82.069H19.3102V86.8966H24.1378V82.069Z" fill="black" fill-opacity="0.88"/>
<path d="M43.4482 82.069H38.6206V86.8966H43.4482V82.069Z" fill="black" fill-opacity="0.88"/>
<path d="M48.2757 82.069H43.4482V86.8966H48.2757V82.069Z" fill="black" fill-opacity="0.88"/>
<path d="M57.9309 82.069H53.1033V86.8966H57.9309V82.069Z" fill="black" fill-opacity="0.88"/>
<path d="M67.5861 82.069H62.7585V86.8966H67.5861V82.069Z" fill="black" fill-opacity="0.88"/>
<path d="M101.379 82.069H96.5516V86.8966H101.379V82.069Z" fill="black" fill-opacity="0.88"/>
<path d="M115.862 82.069H111.034V86.8966H115.862V82.069Z" fill="black" fill-opacity="0.88"/>
<path d="M130.345 82.069H125.517V86.8966H130.345V82.069Z" fill="black" fill-opacity="0.88"/>
<path d="M4.82746 86.8966H-0.00012207V91.7242H4.82746V86.8966Z" fill="black" fill-opacity="0.88"/>
<path d="M14.4826 86.8966H9.65505V91.7242H14.4826V86.8966Z" fill="black" fill-opacity="0.88"/>
<path d="M24.1378 86.8966H19.3102V91.7242H24.1378V86.8966Z" fill="black" fill-opacity="0.88"/>
<path d="M28.9654 86.8966H24.1378V91.7242H28.9654V86.8966Z" fill="black" fill-opacity="0.88"/>
<path d="M33.793 86.8966H28.9654V91.7242H33.793V86.8966Z" fill="black" fill-opacity="0.88"/>
<path d="M48.2757 86.8966H43.4482V91.7242H48.2757V86.8966Z" fill="black" fill-opacity="0.88"/>
<path d="M67.5861 86.8966H62.7585V91.7242H67.5861V86.8966Z" fill="black" fill-opacity="0.88"/>
<path d="M82.0688 86.8966H77.2413V91.7242H82.0688V86.8966Z" fill="black" fill-opacity="0.88"/>
<path d="M86.8964 86.8966H82.0688V91.7242H86.8964V86.8966Z" fill="black" fill-opacity="0.88"/>
<path d="M96.5516 86.8966H91.724V91.7242H96.5516V86.8966Z" fill="black" fill-opacity="0.88"/>
<path d="M106.207 86.8966H101.379V91.7242H106.207V86.8966Z" fill="black" fill-opacity="0.88"/>
<path d="M111.034 86.8966H106.207V91.7242H111.034V86.8966Z" fill="black" fill-opacity="0.88"/>
<path d="M115.862 86.8966H111.034V91.7242H115.862V86.8966Z" fill="black" fill-opacity="0.88"/>
<path d="M130.345 86.8966H125.517V91.7242H130.345V86.8966Z" fill="black" fill-opacity="0.88"/>
<path d="M135.172 86.8966H130.345V91.7242H135.172V86.8966Z" fill="black" fill-opacity="0.88"/>
<path d="M140 86.8966H135.172V91.7242H140V86.8966Z" fill="black" fill-opacity="0.88"/>
<path d="M9.65505 91.7242H4.82746V96.5518H9.65505V91.7242Z" fill="black" fill-opacity="0.88"/>
<path d="M14.4826 91.7242H9.65505V96.5518H14.4826V91.7242Z" fill="black" fill-opacity="0.88"/>
<path d="M24.1378 91.7242H19.3102V96.5518H24.1378V91.7242Z" fill="black" fill-opacity="0.88"/>
<path d="M38.6206 91.7242H33.793V96.5518H38.6206V91.7242Z" fill="black" fill-opacity="0.88"/>
<path d="M43.4482 91.7242H38.6206V96.5518H43.4482V91.7242Z" fill="black" fill-opacity="0.88"/>
<path d="M48.2757 91.7242H43.4482V96.5518H48.2757V91.7242Z" fill="black" fill-opacity="0.88"/>
<path d="M62.7585 91.7242H57.9309V96.5518H62.7585V91.7242Z" fill="black" fill-opacity="0.88"/>
<path d="M72.4137 91.7242H67.5861V96.5518H72.4137V91.7242Z" fill="black" fill-opacity="0.88"/>
<path d="M77.2413 91.7242H72.4137V96.5518H77.2413V91.7242Z" fill="black" fill-opacity="0.88"/>
<path d="M86.8964 91.7242H82.0688V96.5518H86.8964V91.7242Z" fill="black" fill-opacity="0.88"/>
<path d="M91.724 91.7242H86.8964V96.5518H91.724V91.7242Z" fill="black" fill-opacity="0.88"/>
<path d="M96.5516 91.7242H91.724V96.5518H96.5516V91.7242Z" fill="black" fill-opacity="0.88"/>
<path d="M101.379 91.7242H96.5516V96.5518H101.379V91.7242Z" fill="black" fill-opacity="0.88"/>
<path d="M106.207 91.7242H101.379V96.5518H106.207V91.7242Z" fill="black" fill-opacity="0.88"/>
<path d="M111.034 91.7242H106.207V96.5518H111.034V91.7242Z" fill="black" fill-opacity="0.88"/>
<path d="M115.862 91.7242H111.034V96.5518H115.862V91.7242Z" fill="black" fill-opacity="0.88"/>
<path d="M120.69 91.7242H115.862V96.5518H120.69V91.7242Z" fill="black" fill-opacity="0.88"/>
<path d="M140 91.7242H135.172V96.5518H140V91.7242Z" fill="black" fill-opacity="0.88"/>
<path d="M4.82746 96.5518H-0.00012207V101.379H4.82746V96.5518Z" fill="black" fill-opacity="0.88"/>
<path d="M9.65505 96.5518H4.82746V101.379H9.65505V96.5518Z" fill="black" fill-opacity="0.88"/>
<path d="M14.4826 96.5518H9.65505V101.379H14.4826V96.5518Z" fill="black" fill-opacity="0.88"/>
<path d="M28.9654 96.5518H24.1378V101.379H28.9654V96.5518Z" fill="black" fill-opacity="0.88"/>
<path d="M33.793 96.5518H28.9654V101.379H33.793V96.5518Z" fill="black" fill-opacity="0.88"/>
<path d="M38.6206 96.5518H33.793V101.379H38.6206V96.5518Z" fill="black" fill-opacity="0.88"/>
<path d="M57.9309 96.5518H53.1033V101.379H57.9309V96.5518Z" fill="black" fill-opacity="0.88"/>
<path d="M62.7585 96.5518H57.9309V101.379H62.7585V96.5518Z" fill="black" fill-opacity="0.88"/>
<path d="M72.4137 96.5518H67.5861V101.379H72.4137V96.5518Z" fill="black" fill-opacity="0.88"/>
<path d="M77.2413 96.5518H72.4137V101.379H77.2413V96.5518Z" fill="black" fill-opacity="0.88"/>
<path d="M86.8964 96.5518H82.0688V101.379H86.8964V96.5518Z" fill="black" fill-opacity="0.88"/>
<path d="M91.724 96.5518H86.8964V101.379H91.724V96.5518Z" fill="black" fill-opacity="0.88"/>
<path d="M101.379 96.5518H96.5516V101.379H101.379V96.5518Z" fill="black" fill-opacity="0.88"/>
<path d="M106.207 96.5518H101.379V101.379H106.207V96.5518Z" fill="black" fill-opacity="0.88"/>
<path d="M111.034 96.5518H106.207V101.379H111.034V96.5518Z" fill="black" fill-opacity="0.88"/>
<path d="M115.862 96.5518H111.034V101.379H115.862V96.5518Z" fill="black" fill-opacity="0.88"/>
<path d="M120.69 96.5518H115.862V101.379H120.69V96.5518Z" fill="black" fill-opacity="0.88"/>
<path d="M125.517 96.5518H120.69V101.379H125.517V96.5518Z" fill="black" fill-opacity="0.88"/>
<path d="M140 96.5518H135.172V101.379H140V96.5518Z" fill="black" fill-opacity="0.88"/>
<path d="M43.4482 101.379H38.6206V106.207H43.4482V101.379Z" fill="black" fill-opacity="0.88"/>
<path d="M48.2757 101.379H43.4482V106.207H48.2757V101.379Z" fill="black" fill-opacity="0.88"/>
<path d="M53.1033 101.379H48.2757V106.207H53.1033V101.379Z" fill="black" fill-opacity="0.88"/>
<path d="M77.2413 101.379H72.4137V106.207H77.2413V101.379Z" fill="black" fill-opacity="0.88"/>
<path d="M91.724 101.379H86.8964V106.207H91.724V101.379Z" fill="black" fill-opacity="0.88"/>
<path d="M96.5516 101.379H91.724V106.207H96.5516V101.379Z" fill="black" fill-opacity="0.88"/>
<path d="M101.379 101.379H96.5516V106.207H101.379V101.379Z" fill="black" fill-opacity="0.88"/>
<path d="M120.69 101.379H115.862V106.207H120.69V101.379Z" fill="black" fill-opacity="0.88"/>
<path d="M125.517 101.379H120.69V106.207H125.517V101.379Z" fill="black" fill-opacity="0.88"/>
<path d="M130.345 101.379H125.517V106.207H130.345V101.379Z" fill="black" fill-opacity="0.88"/>
<path d="M4.82746 106.207H-0.00012207V111.035H4.82746V106.207Z" fill="black" fill-opacity="0.88"/>
<path d="M9.65505 106.207H4.82746V111.035H9.65505V106.207Z" fill="black" fill-opacity="0.88"/>
<path d="M14.4826 106.207H9.65505V111.035H14.4826V106.207Z" fill="black" fill-opacity="0.88"/>
<path d="M19.3102 106.207H14.4826V111.035H19.3102V106.207Z" fill="black" fill-opacity="0.88"/>
<path d="M24.1378 106.207H19.3102V111.035H24.1378V106.207Z" fill="black" fill-opacity="0.88"/>
<path d="M28.9654 106.207H24.1378V111.035H28.9654V106.207Z" fill="black" fill-opacity="0.88"/>
<path d="M33.793 106.207H28.9654V111.035H33.793V106.207Z" fill="black" fill-opacity="0.88"/>
<path d="M62.7585 106.207H57.9309V111.035H62.7585V106.207Z" fill="black" fill-opacity="0.88"/>
<path d="M67.5861 106.207H62.7585V111.035H67.5861V106.207Z" fill="black" fill-opacity="0.88"/>
<path d="M91.724 106.207H86.8964V111.035H91.724V106.207Z" fill="black" fill-opacity="0.88"/>
<path d="M96.5516 106.207H91.724V111.035H96.5516V106.207Z" fill="black" fill-opacity="0.88"/>
<path d="M101.379 106.207H96.5516V111.035H101.379V106.207Z" fill="black" fill-opacity="0.88"/>
<path d="M111.034 106.207H106.207V111.035H111.034V106.207Z" fill="black" fill-opacity="0.88"/>
<path d="M120.69 106.207H115.862V111.035H120.69V106.207Z" fill="black" fill-opacity="0.88"/>
<path d="M140 106.207H135.172V111.035H140V106.207Z" fill="black" fill-opacity="0.88"/>
<path d="M4.82746 111.035H-0.00012207V115.862H4.82746V111.035Z" fill="black" fill-opacity="0.88"/>
<path d="M33.793 111.035H28.9654V115.862H33.793V111.035Z" fill="black" fill-opacity="0.88"/>
<path d="M48.2757 111.035H43.4482V115.862H48.2757V111.035Z" fill="black" fill-opacity="0.88"/>
<path d="M53.1033 111.035H48.2757V115.862H53.1033V111.035Z" fill="black" fill-opacity="0.88"/>
<path d="M62.7585 111.035H57.9309V115.862H62.7585V111.035Z" fill="black" fill-opacity="0.88"/>
<path d="M72.4137 111.035H67.5861V115.862H72.4137V111.035Z" fill="black" fill-opacity="0.88"/>
<path d="M77.2413 111.035H72.4137V115.862H77.2413V111.035Z" fill="black" fill-opacity="0.88"/>
<path d="M96.5516 111.035H91.724V115.862H96.5516V111.035Z" fill="black" fill-opacity="0.88"/>
<path d="M101.379 111.035H96.5516V115.862H101.379V111.035Z" fill="black" fill-opacity="0.88"/>
<path d="M120.69 111.035H115.862V115.862H120.69V111.035Z" fill="black" fill-opacity="0.88"/>
<path d="M125.517 111.035H120.69V115.862H125.517V111.035Z" fill="black" fill-opacity="0.88"/>
<path d="M130.345 111.035H125.517V115.862H130.345V111.035Z" fill="black" fill-opacity="0.88"/>
<path d="M135.172 111.035H130.345V115.862H135.172V111.035Z" fill="black" fill-opacity="0.88"/>
<path d="M4.82746 115.862H-0.00012207V120.69H4.82746V115.862Z" fill="black" fill-opacity="0.88"/>
<path d="M14.4826 115.862H9.65505V120.69H14.4826V115.862Z" fill="black" fill-opacity="0.88"/>
<path d="M19.3102 115.862H14.4826V120.69H19.3102V115.862Z" fill="black" fill-opacity="0.88"/>
<path d="M24.1378 115.862H19.3102V120.69H24.1378V115.862Z" fill="black" fill-opacity="0.88"/>
<path d="M33.793 115.862H28.9654V120.69H33.793V115.862Z" fill="black" fill-opacity="0.88"/>
<path d="M43.4482 115.862H38.6206V120.69H43.4482V115.862Z" fill="black" fill-opacity="0.88"/>
<path d="M48.2757 115.862H43.4482V120.69H48.2757V115.862Z" fill="black" fill-opacity="0.88"/>
<path d="M67.5861 115.862H62.7585V120.69H67.5861V115.862Z" fill="black" fill-opacity="0.88"/>
<path d="M77.2413 115.862H72.4137V120.69H77.2413V115.862Z" fill="black" fill-opacity="0.88"/>
<path d="M86.8964 115.862H82.0688V120.69H86.8964V115.862Z" fill="black" fill-opacity="0.88"/>
<path d="M96.5516 115.862H91.724V120.69H96.5516V115.862Z" fill="black" fill-opacity="0.88"/>
<path d="M101.379 115.862H96.5516V120.69H101.379V115.862Z" fill="black" fill-opacity="0.88"/>
<path d="M106.207 115.862H101.379V120.69H106.207V115.862Z" fill="black" fill-opacity="0.88"/>
<path d="M111.034 115.862H106.207V120.69H111.034V115.862Z" fill="black" fill-opacity="0.88"/>
<path d="M115.862 115.862H111.034V120.69H115.862V115.862Z" fill="black" fill-opacity="0.88"/>
<path d="M120.69 115.862H115.862V120.69H120.69V115.862Z" fill="black" fill-opacity="0.88"/>
<path d="M130.345 115.862H125.517V120.69H130.345V115.862Z" fill="black" fill-opacity="0.88"/>
<path d="M140 115.862H135.172V120.69H140V115.862Z" fill="black" fill-opacity="0.88"/>
<path d="M4.82746 120.69H-0.00012207V125.517H4.82746V120.69Z" fill="black" fill-opacity="0.88"/>
<path d="M14.4826 120.69H9.65505V125.517H14.4826V120.69Z" fill="black" fill-opacity="0.88"/>
<path d="M19.3102 120.69H14.4826V125.517H19.3102V120.69Z" fill="black" fill-opacity="0.88"/>
<path d="M24.1378 120.69H19.3102V125.517H24.1378V120.69Z" fill="black" fill-opacity="0.88"/>
<path d="M33.793 120.69H28.9654V125.517H33.793V120.69Z" fill="black" fill-opacity="0.88"/>
<path d="M57.9309 120.69H53.1033V125.517H57.9309V120.69Z" fill="black" fill-opacity="0.88"/>
<path d="M67.5861 120.69H62.7585V125.517H67.5861V120.69Z" fill="black" fill-opacity="0.88"/>
<path d="M82.0688 120.69H77.2413V125.517H82.0688V120.69Z" fill="black" fill-opacity="0.88"/>
<path d="M91.724 120.69H86.8964V125.517H91.724V120.69Z" fill="black" fill-opacity="0.88"/>
<path d="M96.5516 120.69H91.724V125.517H96.5516V120.69Z" fill="black" fill-opacity="0.88"/>
<path d="M101.379 120.69H96.5516V125.517H101.379V120.69Z" fill="black" fill-opacity="0.88"/>
<path d="M106.207 120.69H101.379V125.517H106.207V120.69Z" fill="black" fill-opacity="0.88"/>
<path d="M111.034 120.69H106.207V125.517H111.034V120.69Z" fill="black" fill-opacity="0.88"/>
<path d="M120.69 120.69H115.862V125.517H120.69V120.69Z" fill="black" fill-opacity="0.88"/>
<path d="M135.172 120.69H130.345V125.517H135.172V120.69Z" fill="black" fill-opacity="0.88"/>
<path d="M140 120.69H135.172V125.517H140V120.69Z" fill="black" fill-opacity="0.88"/>
<path d="M4.82746 125.517H-0.00012207V130.345H4.82746V125.517Z" fill="black" fill-opacity="0.88"/>
<path d="M14.4826 125.517H9.65505V130.345H14.4826V125.517Z" fill="black" fill-opacity="0.88"/>
<path d="M19.3102 125.517H14.4826V130.345H19.3102V125.517Z" fill="black" fill-opacity="0.88"/>
<path d="M24.1378 125.517H19.3102V130.345H24.1378V125.517Z" fill="black" fill-opacity="0.88"/>
<path d="M33.793 125.517H28.9654V130.345H33.793V125.517Z" fill="black" fill-opacity="0.88"/>
<path d="M43.4482 125.517H38.6206V130.345H43.4482V125.517Z" fill="black" fill-opacity="0.88"/>
<path d="M48.2757 125.517H43.4482V130.345H48.2757V125.517Z" fill="black" fill-opacity="0.88"/>
<path d="M53.1033 125.517H48.2757V130.345H53.1033V125.517Z" fill="black" fill-opacity="0.88"/>
<path d="M67.5861 125.517H62.7585V130.345H67.5861V125.517Z" fill="black" fill-opacity="0.88"/>
<path d="M72.4137 125.517H67.5861V130.345H72.4137V125.517Z" fill="black" fill-opacity="0.88"/>
<path d="M77.2413 125.517H72.4137V130.345H77.2413V125.517Z" fill="black" fill-opacity="0.88"/>
<path d="M86.8964 125.517H82.0688V130.345H86.8964V125.517Z" fill="black" fill-opacity="0.88"/>
<path d="M96.5516 125.517H91.724V130.345H96.5516V125.517Z" fill="black" fill-opacity="0.88"/>
<path d="M101.379 125.517H96.5516V130.345H101.379V125.517Z" fill="black" fill-opacity="0.88"/>
<path d="M130.345 125.517H125.517V130.345H130.345V125.517Z" fill="black" fill-opacity="0.88"/>
<path d="M135.172 125.517H130.345V130.345H135.172V125.517Z" fill="black" fill-opacity="0.88"/>
<path d="M4.82746 130.345H-0.00012207V135.172H4.82746V130.345Z" fill="black" fill-opacity="0.88"/>
<path d="M33.793 130.345H28.9654V135.172H33.793V130.345Z" fill="black" fill-opacity="0.88"/>
<path d="M43.4482 130.345H38.6206V135.172H43.4482V130.345Z" fill="black" fill-opacity="0.88"/>
<path d="M48.2757 130.345H43.4482V135.172H48.2757V130.345Z" fill="black" fill-opacity="0.88"/>
<path d="M67.5861 130.345H62.7585V135.172H67.5861V130.345Z" fill="black" fill-opacity="0.88"/>
<path d="M86.8964 130.345H82.0688V135.172H86.8964V130.345Z" fill="black" fill-opacity="0.88"/>
<path d="M101.379 130.345H96.5516V135.172H101.379V130.345Z" fill="black" fill-opacity="0.88"/>
<path d="M125.517 130.345H120.69V135.172H125.517V130.345Z" fill="black" fill-opacity="0.88"/>
<path d="M130.345 130.345H125.517V135.172H130.345V130.345Z" fill="black" fill-opacity="0.88"/>
<path d="M4.82746 135.172H-0.00012207V140H4.82746V135.172Z" fill="black" fill-opacity="0.88"/>
<path d="M9.65505 135.172H4.82746V140H9.65505V135.172Z" fill="black" fill-opacity="0.88"/>
<path d="M14.4826 135.172H9.65505V140H14.4826V135.172Z" fill="black" fill-opacity="0.88"/>
<path d="M19.3102 135.172H14.4826V140H19.3102V135.172Z" fill="black" fill-opacity="0.88"/>
<path d="M24.1378 135.172H19.3102V140H24.1378V135.172Z" fill="black" fill-opacity="0.88"/>
<path d="M28.9654 135.172H24.1378V140H28.9654V135.172Z" fill="black" fill-opacity="0.88"/>
<path d="M33.793 135.172H28.9654V140H33.793V135.172Z" fill="black" fill-opacity="0.88"/>
<path d="M43.4482 135.172H38.6206V140H43.4482V135.172Z" fill="black" fill-opacity="0.88"/>
<path d="M57.9309 135.172H53.1033V140H57.9309V135.172Z" fill="black" fill-opacity="0.88"/>
<path d="M62.7585 135.172H57.9309V140H62.7585V135.172Z" fill="black" fill-opacity="0.88"/>
<path d="M67.5861 135.172H62.7585V140H67.5861V135.172Z" fill="black" fill-opacity="0.88"/>
<path d="M72.4137 135.172H67.5861V140H72.4137V135.172Z" fill="black" fill-opacity="0.88"/>
<path d="M77.2413 135.172H72.4137V140H77.2413V135.172Z" fill="black" fill-opacity="0.88"/>
<path d="M91.724 135.172H86.8964V140H91.724V135.172Z" fill="black" fill-opacity="0.88"/>
<path d="M130.345 135.172H125.517V140H130.345V135.172Z" fill="black" fill-opacity="0.88"/>
<path d="M135.172 135.172H130.345V140H135.172V135.172Z" fill="black" fill-opacity="0.88"/>
</svg>
